<?xml version="1.0"?>
<svg viewBox="0 0 200 200" version="1.1"  xmlns="http://www.w3.org/2000/svg">
	<circle r="400" style="fill:rgb(255, 255, 255)" />
	<circle cx="88" cy="68" r="142" style="fill:rgb(194, 212, 230)" />
	<circle cx="71" cy="27" r="27" style="fill:rgb(200, 213, 213)" />
	<circle cx="90" cy="81" r="48" style="fill:rgb(231, 201, 156)" />
	<circle cx="17" cy="94" r="45" style="fill:rgb(188, 210, 238)" />
	<circle cx="70" cy="10" r="15" style="fill:rgb(21, 20, 22)" />
	<circle cx="55" cy="40" r="6" style="fill:rgb(35, 39, 34)" />
	<circle cx="102" cy="42" r="46" style="fill:rgb(8, 14, 10)" />
	<circle cx="101" cy="67" r="41" style="fill:rgb(63, 58, 32)" />
	<circle cx="123" cy="25" r="10" style="fill:rgb(70, 89, 39)" />
	<circle cx="117" cy="43" r="11" style="fill:rgb(89, 107, 58)" />
	<circle cx="63" cy="30" r="9" style="fill:rgb(122, 130, 141)" />
	<circle cx="180" cy="51" r="34" style="fill:rgb(176, 196, 222)" />
	<circle cx="76" cy="76" r="20" style="fill:rgb(189, 168, 101)" />
	<circle cx="131" cy="7" r="9" style="fill:rgb(6, 14, 14)" />
	<circle cx="65" cy="84" r="10" style="fill:rgb(230, 208, 167)" />
	<circle cx="81" cy="53" r="11" style="fill:rgb(90, 114, 50)" />
	<circle cx="39" cy="5" r="19" style="fill:rgb(216, 230, 230)" />
	<circle cx="65" cy="75" r="10" style="fill:rgb(255, 231, 186)" />
	<circle cx="10" cy="49" r="19" style="fill:rgb(176, 196, 222)" />
	<circle cx="30" cy="64" r="22" style="fill:rgb(176, 196, 222)" />
	<circle cx="82" cy="35" r="12" style="fill:rgb(73, 89, 47)" />
	<circle cx="143" cy="29" r="3" style="fill:rgb(246, 255, 240)" />
	<circle cx="79" cy="17" r="3" style="fill:rgb(18, 18, 16)" />
	<circle cx="69" cy="99" r="7" style="fill:rgb(245, 222, 179)" />
	<circle cx="63" cy="53" r="8" style="fill:rgb(238, 207, 161)" />
	<circle cx="154" cy="37" r="5" style="fill:rgb(11, 8, 20)" />
	<circle cx="40" cy="38" r="3" style="fill:rgb(9, 10, 14)" />
	<circle cx="161" cy="76" r="22" style="fill:rgb(176, 196, 222)" />
	<circle cx="143" cy="47" r="3" style="fill:rgb(233, 235, 238)" />
	<circle cx="90" cy="80" r="19" style="fill:rgb(194, 194, 76)" />
	<circle cx="69" cy="22" r="7" style="fill:rgb(85, 107, 47)" />
	<circle cx="59" cy="10" r="3" style="fill:rgb(39, 39, 37)" />
	<circle cx="47" cy="40" r="5" style="fill:rgb(14, 14, 19)" />
	<circle cx="54" cy="59" r="3" style="fill:rgb(114, 73, 35)" />
	<circle cx="142" cy="16" r="3" style="fill:rgb(221, 230, 225)" />
	<circle cx="97" cy="131" r="13" style="fill:rgb(189, 134, 107)" />
	<circle cx="183" cy="166" r="14" style="fill:rgb(192, 179, 166)" />
	<circle cx="63" cy="147" r="19" style="fill:rgb(47, 48, 43)" />
	<circle cx="37" cy="162" r="19" style="fill:rgb(238, 238, 224)" />
	<circle cx="40" cy="189" r="43" style="fill:rgb(37, 34, 39)" />
	<circle cx="95" cy="186" r="19" style="fill:rgb(26, 20, 20)" />
	<circle cx="126" cy="140" r="28" style="fill:rgb(239, 239, 224)" />
	<circle cx="100" cy="160" r="28" style="fill:rgb(114, 114, 100)" />
	<circle cx="165" cy="133" r="20" style="fill:rgb(12, 9, 19)" />
	<circle cx="111" cy="181" r="32" style="fill:rgb(238, 238, 224)" />
	<circle cx="128" cy="147" r="24" style="fill:rgb(9, 9, 14)" />
	<circle cx="101" cy="153" r="25" style="fill:rgb(245, 255, 250)" />
	<circle cx="160" cy="187" r="41" style="fill:rgb(11, 8, 17)" />
	<circle cx="115" cy="116" r="19" style="fill:rgb(81, 49, 38)" />
	<circle cx="99" cy="171" r="17" style="fill:rgb(245, 255, 250)" />
	<circle cx="175" cy="147" r="4" style="fill:rgb(180, 177, 172)" />
	<circle cx="99" cy="167" r="5" style="fill:rgb(189, 103, 72)" />
	<circle cx="123" cy="142" r="6" style="fill:rgb(227, 231, 222)" />
	<circle cx="176" cy="112" r="36" style="fill:rgb(188, 210, 238)" />
	<circle cx="99" cy="193" r="11" style="fill:rgb(164, 91, 58)" />
	<circle cx="56" cy="169" r="5" style="fill:rgb(53, 46, 46)" />
	<circle cx="129" cy="120" r="4" style="fill:rgb(193, 205, 193)" />
	<circle cx="79" cy="137" r="10" style="fill:rgb(255, 255, 240)" />
	<circle cx="188" cy="168" r="12" style="fill:rgb(29, 18, 39)" />
	<circle cx="97" cy="179" r="10" style="fill:rgb(191, 105, 71)" />
	<circle cx="55" cy="113" r="14" style="fill:rgb(212, 223, 238)" />
	<circle cx="124" cy="130" r="8" style="fill:rgb(213, 218, 201)" />
	<circle cx="72" cy="126" r="4" style="fill:rgb(253, 255, 245)" />
	<circle cx="45" cy="168" r="5" style="fill:rgb(38, 31, 25)" />
	<circle cx="117" cy="196" r="5" style="fill:rgb(31, 28, 28)" />
	<circle cx="49" cy="196" r="3" style="fill:rgb(19, 15, 12)" />
	<circle cx="99" cy="154" r="9" style="fill:rgb(165, 90, 67)" />
	<circle cx="98" cy="136" r="9" style="fill:rgb(230, 223, 198)" />
	<circle cx="117" cy="196" r="3" style="fill:rgb(12, 7, 14)" />
	<circle cx="8" cy="167" r="12" style="fill:rgb(25, 25, 29)" />
	<circle cx="40" cy="161" r="3" style="fill:rgb(18, 13, 13)" />
</svg>
